<?xml version="1.0" encoding="utf-8"?>
<!-- Generator: Adobe Illustrator 15.1.0, SVG Export Plug-In . SVG Version: 6.00 Build 0)  -->
<!DOCTYPE svg PUBLIC "-//W3C//DTD SVG 1.1//EN" "http://www.w3.org/Graphics/SVG/1.1/DTD/svg11.dtd">
<svg version="1.1" id="hatenabookmark-logo" xmlns="http://www.w3.org/2000/svg" xmlns:xlink="http://www.w3.org/1999/xlink"
	 x="0px" y="0px" width="300px" height="300px" viewBox="0 0 300 300" enable-background="new 0 0 300 300" xml:space="preserve">
<g>
	<path fill="#00A4DE" d="M220.588,50H150H79.412C63.168,50,50,63.168,50,79.412V150v70.588C50,236.832,63.168,250,79.412,250H150
		h70.588C236.832,250,250,236.832,250,220.588V150V79.412C250,63.168,236.832,50,220.588,50z"/>
	<path fill="#008FDE" d="M50,150v70.588C50,236.832,63.168,250,79.412,250H150h70.588C236.832,250,250,236.832,250,220.588V150H50z"
		/>
	<rect x="179.415" y="105.883" fill="#FFFFFF" width="20.589" height="58.825"/>
	<path fill="#FFFFFF" d="M160.352,153.117c-3.484-3.894-8.328-6.083-14.543-6.555c5.528-1.507,9.543-3.711,12.082-6.656
		c2.527-2.906,3.781-6.851,3.781-11.815c0-3.93-0.859-7.407-2.523-10.411c-1.707-2.985-4.16-5.375-7.383-7.164
		c-2.82-1.551-6.171-2.645-10.078-3.29c-3.926-0.625-10.797-0.941-20.656-0.941H97.059v87.43h24.699
		c9.922,0,17.078-0.348,21.453-1.012c4.371-0.687,8.039-1.844,11.008-3.429c3.672-1.938,6.473-4.696,8.43-8.239
		c1.969-3.554,2.945-7.653,2.945-12.34C165.594,162.211,163.847,157,160.352,153.117z M119.195,125.668h5.117
		c5.914,0,9.887,0.667,11.938,1.996c2.023,1.336,3.055,3.641,3.055,6.926c0,3.16-1.098,5.386-3.27,6.691
		c-2.2,1.281-6.211,1.93-12.082,1.93h-4.758V125.668z M139.493,175.805c-2.328,1.43-6.34,2.132-11.969,2.132h-8.328v-19.102h8.688
		c5.781,0,9.777,0.727,11.903,2.18c2.16,1.454,3.222,4.02,3.222,7.704C143.008,172.016,141.843,174.383,139.493,175.805z"/>
	<g>
		<path fill="#F9F9F9" d="M189.711,170.59c-6.5,0-11.766,5.262-11.766,11.762c0,6.5,5.266,11.766,11.766,11.766
			c6.492,0,11.762-5.266,11.762-11.766C201.473,175.852,196.203,170.59,189.711,170.59z"/>
		<path fill="#F9F9F9" d="M156.594,150H97.059v43.715h24.699c9.922,0,17.078-0.348,21.453-1.012
			c4.371-0.687,8.039-1.844,11.008-3.429c3.672-1.938,6.473-4.696,8.43-8.239c1.969-3.554,2.945-7.653,2.945-12.34
			c0-6.483-1.747-11.694-5.242-15.578C159.25,151.891,157.965,150.891,156.594,150z M139.493,175.805
			c-2.328,1.43-6.34,2.132-11.969,2.132h-8.328v-19.102h8.688c5.781,0,9.777,0.727,11.903,2.18c2.16,1.454,3.222,4.02,3.222,7.704
			C143.008,172.016,141.843,174.383,139.493,175.805z"/>
		<rect x="179.415" y="150" fill="#F9F9F9" width="20.589" height="14.708"/>
	</g>
</g>
</svg>
